<?xml version="1.0" standalone="no"?>
<!DOCTYPE svg PUBLIC "-//W3C//DTD SVG 20010904//EN"
 "http://www.w3.org/TR/2001/REC-SVG-20010904/DTD/svg10.dtd">
<svg version="1.0" xmlns="http://www.w3.org/2000/svg"
 width="1024.000000pt" height="1024.000000pt" viewBox="0 0 1024.000000 1024.000000"
 preserveAspectRatio="xMidYMid meet">
<metadata>
Created by potrace 1.10, written by Peter Selinger 2001-2011
</metadata>
<g transform="translate(0.000000,1024.000000) scale(0.100000,-0.100000)"
fill="#000000" stroke="none">
<path d="M2170 9649 c-14 -6 -81 -19 -150 -30 -164 -25 -446 -101 -536 -143
-39 -18 -84 -46 -101 -62 -17 -16 -59 -49 -94 -74 -35 -25 -105 -84 -155 -132
-50 -49 -95 -88 -100 -88 -26 0 241 236 313 276 l28 16 -28 -7 c-42 -9 -95
-45 -160 -109 -32 -31 -100 -92 -151 -136 -51 -44 -101 -91 -111 -106 -9 -14
-19 -23 -23 -20 -3 3 4 16 15 29 11 12 23 28 28 35 14 26 -31 -5 -49 -33 -14
-22 -15 -28 -3 -40 12 -12 21 -6 61 41 26 30 52 54 57 54 12 0 -84 -118 -171
-210 -67 -71 -80 -94 -79 -143 0 -27 2 -29 9 -11 4 11 31 49 59 84 28 35 51
66 51 70 0 18 125 169 169 205 27 22 94 78 148 125 167 146 282 209 509 278
150 46 251 69 352 78 39 4 69 10 67 14 -7 12 29 6 37 -5 14 -19 8 -23 -49 -30
-111 -13 -349 -77 -465 -125 -140 -58 -316 -159 -371 -215 -22 -22 -43 -39
-47 -38 -4 1 -70 -62 -147 -140 -93 -94 -160 -172 -197 -229 -127 -196 -218
-437 -237 -632 -5 -50 -9 -192 -9 -315 l0 -225 26 -37 c30 -44 79 -193 87
-262 4 -42 2 -50 -19 -63 -13 -9 -29 -14 -36 -12 -7 3 -23 36 -36 74 l-23 69
6 -50 c3 -27 13 -67 22 -87 l16 -38 82 0 c48 0 100 -6 125 -15 37 -13 41 -13
30 0 -6 8 -27 20 -46 27 -36 13 -43 25 -19 34 21 8 19 22 -14 95 -31 70 -59
163 -91 308 -27 124 -31 420 -6 469 9 17 16 41 17 54 0 22 1 22 9 3 8 -18 9
-17 9 8 1 15 5 27 10 27 6 0 16 12 23 27 9 19 27 30 63 40 28 8 54 19 60 24 5
5 23 9 40 8 l30 0 -25 -11 c-23 -9 -24 -11 -6 -17 19 -7 19 -8 0 -15 -16 -7
-14 -10 16 -21 19 -8 28 -14 19 -14 -23 -1 -49 -33 -31 -38 22 -8 13 -19 -19
-21 -17 -1 -43 -9 -58 -17 -26 -14 -26 -14 19 -14 56 -1 92 8 84 21 -3 5 0 15
6 23 9 11 9 15 1 15 -6 0 -11 5 -11 10 0 6 9 10 19 10 21 0 31 19 31 55 0 13
8 30 18 37 28 20 34 36 20 57 -10 17 -9 23 7 42 16 17 20 33 17 86 -1 51 2 70
17 89 19 24 20 24 26 4 3 -11 10 -20 14 -20 11 0 25 -77 22 -117 -1 -19 4 -39
13 -48 16 -17 81 -21 71 -5 -3 6 -19 10 -36 10 -19 0 -29 5 -29 15 0 9 9 15
25 15 14 0 25 4 25 10 0 5 -15 7 -32 5 -27 -4 -29 -3 -8 3 24 8 24 8 5 20 -17
10 -18 11 -2 12 9 0 17 5 17 10 0 6 -8 10 -17 10 -9 0 -13 3 -10 7 4 3 -1 11
-10 18 -14 10 -6 15 53 33 127 38 126 38 118 8 -4 -18 -2 -26 7 -26 9 -1 8 -4
-3 -11 -10 -5 -18 -17 -18 -24 0 -8 -5 -15 -11 -15 -5 0 -7 -5 -4 -10 4 -6 1
-17 -5 -25 -10 -12 -9 -15 6 -15 12 0 15 -3 8 -8 -15 -10 -37 -52 -30 -59 10
-11 36 7 30 21 -3 8 -1 17 5 21 7 3 11 -2 11 -14 0 -30 -11 -51 -26 -51 -12 0
-32 -105 -25 -139 2 -9 -4 -12 -18 -8 -12 3 -21 1 -21 -4 0 -15 30 -10 54 9
21 16 22 19 7 32 -14 13 -14 15 1 18 10 2 14 10 11 22 -3 10 2 34 12 52 10 22
16 58 16 106 0 40 4 70 8 67 12 -7 23 39 15 59 -9 25 11 19 24 -6 18 -39 23
-76 9 -81 -7 -3 -6 -6 5 -6 19 -1 32 -33 30 -73 -2 -21 2 -28 16 -28 26 0 33
10 18 26 -8 7 -11 24 -9 38 3 14 1 26 -4 26 -5 0 -9 10 -10 23 -4 45 -14 87
-22 87 -5 0 -11 10 -14 22 -5 16 9 45 50 105 48 71 58 81 67 66 5 -10 24 -36
43 -59 18 -23 33 -44 33 -48 0 -11 -43 -66 -51 -66 -4 0 -10 12 -12 28 -2 15
-5 0 -6 -33 -1 -33 -8 -68 -15 -78 -10 -13 -12 -27 -5 -50 12 -43 12 -45 -8
-50 -17 -4 -17 -5 -1 -6 11 -1 15 -7 12 -15 -3 -8 -1 -24 6 -35 7 -14 7 -21 0
-21 -5 0 -10 -6 -10 -13 0 -7 -13 -25 -28 -40 l-28 -27 1 52 c0 35 -4 53 -14
56 -11 4 -13 -6 -7 -49 4 -30 7 -62 7 -72 0 -23 34 4 197 157 68 64 183 171
255 237 72 67 138 130 146 141 13 19 12 19 -7 9 -24 -13 -31 0 -33 57 -1 20
-5 51 -10 67 -5 19 -6 -2 -3 -60 4 -79 -5 -130 -20 -115 -2 3 -6 94 -9 202 -4
169 -3 199 10 210 18 14 19 13 86 -93 54 -85 93 -130 115 -134 9 -1 16 -8 14
-14 -2 -9 3 -9 14 -3 19 11 42 -10 92 -82 37 -54 42 -79 10 -49 -120 107 53
-104 189 -231 46 -43 118 -117 160 -165 140 -159 284 -300 300 -294 10 4 42
-22 94 -73 43 -43 79 -72 79 -64 0 21 -17 45 -32 45 -7 1 -12 7 -10 14 2 8 -4
21 -12 30 -16 18 -50 91 -42 91 4 0 162 -149 188 -177 4 -5 36 -39 72 -78 35
-38 67 -67 71 -63 3 3 -70 84 -164 180 -141 143 -173 170 -182 158 -9 -13 -10
-12 -5 2 3 10 1 20 -4 23 -6 4 -10 2 -10 -3 0 -6 -10 -8 -22 -4 -22 5 -22 4
-7 -14 8 -10 38 -46 65 -79 l49 -60 -50 44 c-28 25 -58 56 -67 70 -10 15 -18
20 -18 13 0 -28 -30 -3 -150 128 -69 74 -173 183 -232 242 -60 58 -108 111
-108 116 0 5 -9 8 -21 8 -27 -1 -118 109 -102 125 7 7 26 -6 61 -43 237 -249
316 -326 338 -324 20 1 -20 45 -216 240 -132 132 -238 242 -236 244 5 5 184
-166 409 -391 98 -98 181 -176 185 -173 3 4 1 11 -5 17 -8 8 -6 20 4 41 9 17
16 49 17 72 2 47 16 59 31 27 6 -13 19 -21 35 -21 20 0 22 2 10 10 -8 5 -15
14 -15 20 0 6 -7 15 -15 20 -13 8 -12 10 3 10 21 0 22 10 2 36 -8 10 -15 29
-15 42 0 32 -20 27 -20 -5 0 -20 -3 -24 -9 -14 -7 10 -10 8 -15 -10 -4 -13
-12 -42 -19 -63 -9 -31 -9 -40 1 -44 7 -2 9 -9 5 -15 -8 -13 -9 -18 -12 -62
l-2 -30 -29 33 c-30 32 -33 45 -30 115 1 28 -2 37 -14 37 -12 0 -16 -10 -16
-40 0 -30 -4 -40 -16 -40 -9 0 -18 9 -21 19 -3 12 -11 17 -19 14 -8 -3 -14 0
-14 6 0 6 7 11 15 11 8 0 18 12 21 26 4 17 10 22 17 15 7 -7 16 -7 29 0 18 10
19 12 3 29 -9 10 -12 21 -7 24 6 3 8 36 5 73 -5 63 -4 67 11 48 8 -11 16 -15
16 -9 0 6 -7 17 -16 25 -22 18 -36 -6 -30 -54 3 -31 2 -36 -9 -27 -17 14 -28
-2 -32 -50 -5 -72 -8 -83 -22 -88 -10 -3 -12 1 -9 16 4 14 0 23 -11 27 -14 6
-14 8 2 14 17 6 17 8 -3 34 -13 16 -16 27 -10 27 9 0 10 3 1 13 -6 8 -8 16 -5
19 3 3 -13 8 -35 10 -34 3 -41 0 -41 -14 0 -25 -12 -22 -44 11 -18 19 -25 34
-20 43 6 11 5 11 -8 0 -9 -7 -19 -9 -21 -5 -3 5 15 28 39 53 30 30 44 39 44
27 0 -9 8 -21 18 -26 14 -7 18 -18 14 -40 -2 -18 0 -31 6 -31 6 0 17 -3 25 -6
8 -3 17 2 21 11 4 11 -3 19 -22 27 l-27 12 28 4 c31 4 27 22 -6 23 -12 0 -16
3 -9 6 6 2 12 9 12 14 0 6 -6 7 -12 3 -8 -5 -7 0 2 11 14 17 13 18 -13 11 -30
-7 -30 0 1 36 9 10 12 24 7 35 -7 17 -8 17 -14 -1 -6 -16 -9 -17 -13 -4 -4 10
12 33 47 68 41 40 60 52 86 53 34 2 34 2 37 -48 2 -27 -2 -76 -8 -108 -10 -54
-8 -79 5 -65 3 3 9 38 13 79 l8 74 21 -47 c15 -33 20 -58 16 -87 -4 -27 -2
-41 6 -41 6 0 11 11 11 25 0 40 15 29 63 -46 l46 -71 3 36 c3 42 21 49 26 11
2 -17 11 -27 28 -31 17 -4 27 -15 31 -34 3 -15 13 -32 22 -36 20 -10 171 -178
171 -190 0 -3 -12 -9 -27 -15 l-28 -11 23 -11 c25 -12 28 -25 8 -41 -8 -6 -17
-21 -21 -33 -5 -18 -2 -23 12 -23 17 -1 17 -2 -1 -15 -17 -13 -18 -15 -3 -15
24 0 21 -31 -3 -37 -11 -3 -20 -13 -20 -23 0 -13 6 -16 25 -12 14 2 22 8 20
12 -3 5 -1 11 4 15 6 3 10 29 10 58 -1 29 4 65 10 80 14 37 15 35 -16 40 -27
4 -27 4 4 6 26 1 30 4 26 21 -3 11 0 33 5 49 7 19 7 33 1 36 -5 4 -9 18 -9 33
l0 27 19 -24 18 -23 26 26 c15 15 32 24 37 21 6 -4 10 9 11 32 0 21 3 32 6 26
4 -12 43 -19 43 -8 0 3 -9 14 -20 25 -11 11 -22 37 -26 58 l-6 38 -89 1 c-49
1 -91 -2 -94 -7 -7 -11 74 -23 120 -18 29 3 35 1 35 -14 0 -10 -4 -18 -10 -18
-5 0 -10 -5 -10 -11 0 -5 5 -7 10 -4 17 11 11 -11 -12 -41 -18 -23 -19 -27 -5
-21 19 7 22 -1 7 -23 -9 -12 -16 -9 -43 21 -120 135 -159 179 -178 203 -24 30
-36 32 -60 10 -10 -9 -26 -13 -36 -10 -24 8 -192 176 -210 210 -11 22 -18 25
-41 20 -52 -13 -71 -23 -113 -61 l-42 -38 -16 25 c-9 13 -28 38 -42 55 -14 16
-33 44 -42 60 -9 17 -26 43 -39 58 l-23 28 -64 -43 c-36 -24 -81 -66 -103 -96
-22 -29 -47 -56 -55 -59 -21 -8 -57 37 -134 167 -34 58 -68 115 -76 127 -13
23 -14 22 -81 -48 -37 -39 -80 -90 -95 -112 -15 -23 -30 -43 -33 -46 -10 -10
-24 24 -24 59 0 41 -12 31 -30 -27 -7 -23 -24 -52 -36 -64 -29 -27 -31 -44 -4
-29 23 12 27 -2 5 -20 -8 -7 -15 -17 -15 -22 0 -6 8 -4 17 3 15 13 -17 -51
-54 -106 -18 -26 -16 -40 2 -25 9 7 19 10 23 6 4 -4 -2 -14 -12 -22 -11 -8
-15 -14 -8 -14 6 0 9 -7 6 -15 -10 -24 -27 -17 -58 25 -39 52 -56 57 -84 24
l-23 -27 -170 2 c-113 2 -169 -1 -169 -8 0 -7 56 -11 166 -11 l165 0 -15 -21
c-13 -20 -22 -21 -151 -20 -84 1 -135 -2 -131 -7 3 -6 0 -12 -8 -15 -22 -9
-54 34 -59 78 l-4 40 -1 -39 c-1 -25 -10 -48 -24 -63 -12 -13 -16 -23 -10 -23
7 0 12 -7 12 -15 0 -10 -10 -15 -30 -15 -16 0 -30 -5 -30 -11 0 -7 10 -9 25
-7 27 6 32 -1 13 -20 -10 -10 -10 -15 2 -22 18 -11 15 -14 -44 -34 -47 -15
-106 -22 -106 -11 0 25 177 265 202 274 10 3 59 3 110 0 51 -4 95 -5 97 -3 10
9 -10 14 -99 21 -54 5 -95 13 -97 19 -5 16 170 170 269 236 106 71 241 138
343 171 185 60 405 103 437 86 9 -5 48 -6 85 -3 54 5 99 0 221 -25 302 -62
517 -171 723 -370 l104 -100 -72 -1 c-42 0 -73 -4 -73 -10 0 -6 34 -10 83 -10
68 0 87 -3 99 -17 36 -42 34 -43 -76 -36 -79 4 -106 3 -106 -6 0 -6 10 -11 23
-10 12 1 42 1 67 0 l45 -3 -50 -14 c-27 -7 -36 -11 -20 -9 121 18 158 18 171
0 20 -27 17 -37 -8 -30 -18 5 -20 4 -8 -4 8 -6 22 -11 30 -11 13 0 100 -125
100 -144 0 -12 -91 -6 -120 9 l-29 15 6 -58 c3 -31 12 -64 20 -73 8 -9 16 -32
19 -51 6 -33 8 -35 43 -33 20 1 55 3 79 4 58 1 45 21 -14 21 -47 0 -84 13 -84
31 0 5 11 7 25 3 38 -9 30 3 -17 28 l-43 22 55 10 c44 8 49 11 25 13 -52 6
-75 13 -75 24 0 6 24 9 62 7 61 -3 63 -4 85 -43 12 -22 23 -42 23 -45 0 -3
-19 -4 -42 -3 -35 2 -38 1 -18 -6 14 -5 37 -9 51 -10 21 -1 28 -9 39 -41 7
-22 17 -37 23 -33 7 4 8 -1 3 -12 -4 -11 0 -25 10 -37 26 -27 13 -30 -47 -9
-52 18 -53 23 -4 34 11 3 -10 4 -47 3 -37 -2 -65 1 -63 4 5 8 -55 23 -62 16
-2 -2 7 -16 20 -30 16 -17 42 -29 77 -36 91 -17 130 -30 130 -43 0 -7 9 -20
20 -30 11 -9 20 -25 20 -36 0 -11 3 -26 6 -35 5 -14 -8 -16 -102 -16 l-109 -1
24 -19 c13 -12 21 -26 17 -35 -3 -8 -1 -15 4 -15 6 0 10 7 10 15 0 10 10 15
29 15 17 0 33 5 37 12 5 8 -2 9 -24 5 -20 -4 -32 -2 -32 4 0 7 24 10 68 7 60
-3 68 -6 79 -28 11 -24 12 -22 12 20 1 98 -67 326 -119 400 -23 34 -62 111
-58 116 2 1 15 7 28 13 22 9 23 10 5 10 -12 1 -26 -4 -32 -10 -7 -7 -29 20
-74 93 -40 65 -96 137 -152 195 -54 56 -83 93 -75 96 7 2 3 2 -9 1 -12 -2 -25
1 -29 8 -5 7 -3 8 7 3 8 -5 11 -4 6 1 -5 5 -12 9 -16 9 -8 0 -35 21 -72 59
-16 15 -29 25 -29 20 0 -4 -7 1 -15 12 -8 10 -15 15 -15 11 0 -4 -10 2 -22 13
-33 30 -258 137 -358 170 -81 26 -314 70 -374 70 -27 0 -28 2 -22 31 3 17 6
40 6 51 0 19 4 20 58 13 77 -9 236 -42 259 -53 10 -5 40 -15 68 -21 102 -25
420 -202 559 -312 50 -40 283 -262 255 -244 -8 6 -1 -3 16 -18 16 -16 24 -26
17 -22 -8 4 -3 -10 11 -31 13 -22 46 -82 72 -134 27 -52 53 -97 57 -98 5 -2 5
-8 2 -13 -3 -6 5 -27 18 -47 54 -84 94 -207 115 -352 18 -132 28 -450 14 -450
-15 0 -18 10 -25 72 -7 50 -5 57 8 52 20 -8 20 20 1 101 -17 71 -18 78 -6 71
5 -4 3 20 -5 51 -7 32 -13 61 -14 64 0 4 -7 9 -14 12 -13 5 -14 -17 -9 -156 6
-171 -8 -356 -33 -437 l-14 -45 6 50 c3 28 8 79 11 115 l6 66 -52 12 c-51 12
-109 16 -100 8 2 -2 20 -6 39 -9 19 -3 47 -10 62 -15 l26 -11 -4 -116 c-3 -78
-9 -127 -20 -146 -20 -39 -57 -160 -50 -166 8 -9 34 51 81 187 36 107 45 146
45 201 0 39 4 69 10 69 16 0 12 -107 -6 -169 -40 -135 -58 -190 -84 -243 -26
-55 -24 -80 2 -38 7 11 18 20 25 20 7 0 13 3 14 8 4 52 8 72 18 88 9 16 10 12
5 -21 -15 -105 -46 -155 -95 -155 -14 0 -72 -41 -66 -46 2 -2 20 3 40 11 20 8
65 15 100 15 84 0 94 12 123 148 36 165 38 178 26 167 -5 -5 -22 -64 -37 -130
-29 -123 -51 -165 -87 -165 -17 0 -17 2 -4 29 8 15 27 88 42 162 26 124 30
136 62 167 l35 32 -6 213 c-5 144 -11 227 -21 257 -8 25 -22 86 -31 135 -28
155 -56 246 -117 370 -64 132 -73 146 -169 273 -106 140 -323 336 -490 440
-162 102 -367 174 -606 213 -106 16 -143 26 -143 37 0 10 9 12 38 8 20 -3 62
-8 92 -11 87 -10 365 -74 444 -102 107 -38 181 -78 281 -151 90 -65 257 -203
306 -251 33 -33 114 -146 170 -238 46 -75 61 -86 79 -54 14 27 14 28 -17 34
-21 5 -46 32 -103 114 -76 109 -287 337 -321 348 -11 4 -17 10 -15 14 8 12
-44 56 -99 84 -27 14 -77 41 -110 61 -86 53 -265 102 -545 152 -80 14 -164 32
-188 40 -49 16 -125 17 -162 3z m125 -19 c-11 -5 -38 -10 -60 -11 l-40 -2 45
-7 45 -7 -43 -1 -44 -2 7 -42 c10 -59 29 -77 22 -20 -4 32 -2 42 9 42 10 0 14
-12 14 -39 0 -51 -10 -78 -21 -59 -6 9 -9 2 -9 -19 0 -30 3 -33 30 -33 29 0
30 2 30 44 0 66 12 136 22 136 13 0 0 -160 -14 -177 -6 -7 -23 -13 -38 -13
-44 0 -50 15 -65 173 l-5 47 68 -1 c47 0 61 -3 47 -9z m-116 -151 l1 -36 -55
12 c-50 12 -56 12 -65 -4 -10 -20 -108 -45 -142 -37 -13 3 -16 3 -8 -1 15 -6
-102 -44 -147 -47 -12 0 -20 -3 -17 -5 7 -7 -111 -51 -124 -46 -7 3 -11 1 -8
-3 7 -12 -63 -44 -76 -36 -7 4 -8 2 -4 -4 4 -7 3 -12 -2 -12 -5 0 -36 -18 -70
-39 -33 -22 -62 -37 -65 -35 -3 3 -8 0 -13 -7 -5 -8 -3 -10 7 -4 16 9 8 2 -36
-35 l-30 -25 20 24 20 25 -30 -21 c-16 -11 -39 -31 -50 -44 -19 -23 -19 -23
10 1 l30 25 -24 -27 c-13 -15 -27 -25 -32 -23 -4 3 -16 -5 -26 -18 -10 -13
-27 -26 -38 -31 -15 -5 -16 -9 -6 -15 10 -7 6 -12 -15 -22 -57 -28 -252 -311
-319 -465 -15 -32 -35 -77 -45 -99 -10 -22 -33 -87 -50 -146 -32 -103 -34
-105 -60 -101 -22 3 -29 10 -32 33 -3 16 -2 29 1 29 3 0 7 17 8 38 2 47 45
182 86 270 17 37 31 74 30 82 -2 18 8 36 80 148 33 51 62 90 65 88 2 -3 -6
-20 -20 -38 -36 -48 -120 -189 -116 -194 3 -2 15 15 28 39 13 23 48 77 77 120
29 43 53 82 53 86 0 19 107 133 201 216 54 48 96 92 92 98 -3 6 -1 7 5 3 9 -5
91 47 112 72 9 11 -55 -31 -80 -52 l-25 -21 20 23 c37 44 317 198 337 186 6
-4 8 -3 5 4 -9 14 159 75 186 66 14 -4 17 -3 12 6 -5 9 -2 10 14 5 13 -4 21
-2 21 5 0 7 8 10 20 7 10 -3 20 -1 22 3 2 4 59 19 128 32 l125 24 7 -20 c3
-12 6 -37 7 -57z m811 -4 c14 -8 21 -14 15 -14 -5 0 -21 6 -35 14 -14 8 -20
14 -15 14 6 0 21 -6 35 -14z m-1501 -19 c-10 -9 -69 -36 -69 -32 0 7 52 35 64
36 5 0 7 -2 5 -4z m1762 -132 c8 -10 -4 -5 -28 11 -24 15 -43 29 -43 32 0 8
57 -27 71 -43z m-176 -9 c11 -9 2 -7 -20 6 -22 12 -44 26 -50 32 -16 15 48
-20 70 -38z m-1084 -98 c-20 -31 -21 -32 -21 -7 0 14 8 37 17 50 15 22 18 23
21 7 2 -10 -6 -32 -17 -50z m-43 -62 c-8 -66 -94 -228 -105 -197 -3 6 -14 13
-26 13 -17 1 -18 2 -4 6 19 5 23 19 5 25 -29 10 90 198 125 198 5 0 7 -20 5
-45z m-764 -22 c-65 -79 -68 -82 -54 -53 11 23 89 110 98 110 2 0 -18 -26 -44
-57z m1209 -27 c-28 -30 -53 -64 -56 -75 -8 -33 7 -24 30 17 29 50 91 109 102
96 5 -5 24 -52 44 -104 19 -52 37 -102 41 -110 4 -10 -11 -33 -47 -68 l-53
-52 -73 75 c-40 41 -82 75 -92 75 -22 0 -24 10 -6 29 9 10 9 12 0 7 -7 -4 2
15 20 43 29 44 126 133 136 125 2 -2 -19 -28 -46 -58z m-425 -43 c0 -10 4 -31
9 -48 5 -16 6 -41 2 -55 -6 -20 -7 -16 -8 20 -1 25 -5 51 -10 59 -5 8 -7 20
-4 28 7 18 12 16 11 -4z m-8 -163 c6 0 10 8 11 18 2 38 17 -35 18 -90 1 -56 1
-56 -48 -92 -47 -34 -50 -35 -77 -21 -27 13 -30 13 -49 -6 l-20 -20 23 -18 24
-17 -34 -45 c-19 -24 -41 -44 -49 -45 -7 0 -22 -4 -31 -8 -24 -11 -61 -3 -66
13 -4 10 2 12 22 7 15 -4 32 -3 39 1 17 10 -33 21 -58 13 -18 -7 -20 -3 -20
39 0 25 4 52 8 59 5 7 6 24 3 38 -6 23 -4 24 46 25 46 0 49 2 28 10 -14 6 -33
8 -42 5 -11 -2 -18 1 -18 10 0 18 61 19 78 2 9 -9 12 -9 12 0 0 7 -6 15 -14
18 -24 9 -26 43 -3 64 l21 20 -35 1 c-31 1 -32 2 -9 8 14 4 24 14 22 21 -2 7
4 30 13 52 18 47 19 51 3 42 -9 -5 -9 -2 1 9 14 18 37 24 27 8 -4 -5 -1 -22 5
-38 6 -15 10 -30 9 -33 -1 -3 11 -10 26 -16 l28 -12 -32 -7 c-45 -10 -40 -24
7 -18 23 3 41 1 45 -6 5 -7 -2 -11 -18 -11 -14 0 -28 -4 -31 -10 -10 -16 41
-12 54 4 9 11 8 18 -5 30 -23 23 -10 32 18 12 36 -26 58 -19 25 8 l-28 22 28
50 28 49 3 -72 c2 -40 7 -73 12 -73z m616 100 c16 -24 24 -46 20 -56 -8 -21
-13 -16 -42 45 -28 61 -15 67 22 11z m384 -153 c27 -31 30 -40 20 -52 -7 -8
-16 -15 -21 -15 -13 0 -118 162 -119 183 0 10 70 -58 120 -116z m-360 45 c0
-15 -103 -111 -112 -106 -9 6 2 22 56 82 28 30 56 42 56 24z m-991 -77 c37
-52 26 -62 -13 -11 -23 30 -33 56 -23 56 2 0 18 -20 36 -45z m1498 8 c4 -10
17 -26 30 -36 14 -12 23 -29 23 -47 0 -23 4 -27 20 -23 22 6 75 -47 58 -58 -7
-4 -6 -9 1 -14 9 -5 9 -11 -1 -22 -11 -14 -10 -15 10 -9 13 5 22 3 22 -3 0 -6
-12 -14 -27 -17 -16 -4 -32 -10 -38 -14 -5 -4 -28 14 -50 40 -22 26 -48 50
-57 53 -10 3 -18 15 -18 26 0 13 -10 26 -24 32 -21 10 -36 33 -40 61 -1 8 62
46 77 47 4 1 11 -7 14 -16z m-1646 -71 c-5 -10 -17 -24 -25 -32 -9 -7 -16 -18
-16 -26 0 -7 -5 -16 -12 -20 -8 -5 -9 0 -6 14 7 24 -7 31 -15 9 -3 -7 -45 -24
-94 -37 -48 -12 -94 -25 -100 -28 -7 -2 -13 3 -13 12 0 9 6 16 13 16 7 0 4 7
-7 15 -11 8 -16 18 -12 22 4 5 53 11 109 14 l102 5 -105 2 c-58 1 -112 7 -120
12 -12 8 -9 10 13 11 15 1 32 3 37 4 6 1 63 4 128 6 l117 3 -110 6 -110 6 118
2 c111 2 117 1 108 -16z m405 -52 c8 0 14 -5 14 -11 0 -15 -53 -6 -58 10 -3
10 0 12 12 8 10 -4 24 -7 32 -7z m805 -17 c1 -16 1 -31 0 -35 0 -5 4 -8 9 -8
6 0 10 -4 10 -10 0 -20 -29 3 -44 35 -20 42 -20 45 4 45 15 0 20 -7 21 -27z
m-1031 -48 c0 -8 -7 -15 -15 -15 -16 0 -20 12 -8 23 11 12 23 8 23 -8z m-20
-25 c13 -9 13 -11 0 -20 -10 -6 -11 -10 -2 -10 6 0 12 -4 12 -10 0 -13 -37
-13 -45 -1 -3 5 -1 12 4 16 6 3 8 12 4 20 -6 17 5 19 27 5z m-551 -27 c-12
-15 -12 -16 4 -10 9 3 17 3 17 -2 0 -5 -25 -9 -57 -10 -61 -1 -89 -11 -31 -11
46 0 100 -19 95 -34 -2 -7 -31 -10 -83 -9 -71 2 -75 1 -34 -7 25 -5 61 -13 80
-18 l35 -9 -55 -11 c-30 -6 -71 -13 -90 -15 -19 -3 -7 -4 28 -3 61 2 82 -7 42
-17 -11 -3 -20 -10 -20 -16 0 -6 7 -8 15 -5 20 8 65 -4 65 -16 0 -6 -29 -10
-65 -10 -40 0 -90 -8 -126 -20 -34 -12 -63 -19 -65 -17 -2 2 19 56 47 119 l50
116 67 10 c102 14 97 15 81 -5z m2179 -15 c-3 -7 -15 -14 -29 -16 -23 -2 -23
-2 -5 13 24 18 39 20 34 3z m-1540 -35 c19 4 20 2 10 -11 -22 -28 -81 -77 -89
-75 -4 2 -11 -6 -14 -17 -11 -35 -25 -21 -25 25 0 38 3 44 18 39 12 -4 12 -2
-3 8 -28 17 -21 48 11 48 13 0 24 5 24 10 0 6 10 1 23 -10 13 -13 31 -20 45
-17z m1552 -19 c0 -9 -5 -14 -12 -12 -18 6 -21 28 -4 28 9 0 16 -7 16 -16z
m-2220 -200 c0 -8 -9 -14 -20 -14 -13 0 -20 7 -20 19 0 14 5 18 20 14 11 -3
20 -12 20 -19z m-349 -234 c-9 -33 -20 -60 -24 -60 -12 0 1 91 15 108 21 25
24 10 9 -48z m10 -136 c1 -81 0 -91 -10 -74 -17 29 -22 77 -11 105 14 37 21
28 21 -31z m-19 -136 c4 -50 2 -66 -6 -57 -8 10 -14 109 -6 109 4 0 10 -24 12
-52z m53 -139 c16 -93 18 -116 8 -106 -8 9 -32 133 -33 171 0 49 10 23 25 -65z
m3126 -9 c-9 -24 -10 -24 -10 7 -1 17 2 40 7 50 6 15 7 14 10 -7 2 -14 -2 -37
-7 -50z m-3087 -160 l7 -25 -15 25 c-9 14 -15 32 -15 40 0 13 1 13 8 0 5 -8
12 -26 15 -40z m25 -71 c14 -41 14 -66 -1 -75 -8 -5 -9 0 -5 16 3 13 0 38 -8
57 -8 18 -10 33 -5 33 4 0 13 -14 19 -31z m40 -120 c-16 -9 -29 -3 -29 16 0
19 23 25 34 7 5 -9 4 -17 -5 -23z"/>
<path d="M2406 9065 c-19 -44 -19 -45 -7 -45 11 0 36 69 28 77 -3 3 -13 -12
-21 -32z"/>
<path d="M1790 8866 c0 -8 5 -18 10 -21 6 -3 10 3 10 14 0 12 -4 21 -10 21 -5
0 -10 -6 -10 -14z"/>
<path d="M1819 8799 c-10 -6 -7 -9 14 -9 29 0 35 5 14 13 -8 3 -20 1 -28 -4z"/>
<path d="M1790 8778 c0 -22 47 -36 63 -18 10 10 6 11 -15 6 -20 -4 -30 -1 -37
11 -10 17 -10 17 -11 1z"/>
<path d="M2505 9229 l-40 -19 35 6 c19 4 49 7 65 6 93 -3 127 0 190 13 l70 15
-70 -6 c-78 -7 -135 -6 -180 1 -18 2 -46 -3 -70 -16z"/>
<path d="M3465 9149 c80 -85 108 -105 66 -49 -32 44 -13 36 41 -17 26 -26 51
-44 55 -40 12 13 -50 69 -102 92 -27 13 -61 35 -75 50 -14 15 -34 32 -45 37
-11 6 16 -27 60 -73z"/>
<path d="M2010 9074 c0 -41 4 -63 10 -59 6 3 10 33 10 66 0 33 -4 59 -10 59
-6 0 -10 -29 -10 -66z"/>
<path d="M3041 9075 c-19 -9 -32 -17 -30 -19 8 -9 110 9 110 19 0 16 -43 16
-80 0z"/>
<path d="M1551 9025 c-44 -20 -33 -31 14 -15 20 7 48 9 62 6 18 -5 24 -3 21 6
-6 19 -57 20 -97 3z"/>
<path d="M1380 8940 c-11 -7 3 -10 48 -10 35 0 62 4 62 10 0 13 -90 13 -110 0z"/>
<path d="M1195 8860 c-14 -6 5 -9 58 -9 45 -1 77 3 77 9 0 12 -107 12 -135 0z"/>
<path d="M2271 8810 c0 -31 3 -39 8 -26 7 19 8 19 22 -1 8 -12 72 -81 142
-153 70 -73 124 -137 120 -143 -3 -5 -1 -7 5 -3 6 3 20 -11 33 -31 12 -21 34
-50 48 -66 14 -15 27 -39 28 -52 4 -24 2 -25 -34 -21 -21 3 -69 5 -106 5 -59
1 -68 3 -65 18 3 15 14 17 92 14 70 -2 87 0 84 11 -3 9 -30 14 -91 16 -86 3
-98 9 -79 39 5 8 20 9 52 3 70 -14 85 -13 70 5 -8 10 -30 15 -65 15 l-52 0 -6
37 c-4 20 -4 39 -1 42 3 3 18 -9 35 -27 16 -18 35 -32 42 -32 6 0 -6 17 -26
38 -21 21 -35 40 -32 43 2 3 -21 30 -53 60 l-57 54 50 -52 c27 -29 46 -53 41
-53 -4 0 -34 21 -67 46 -32 25 -59 43 -59 41 0 -8 49 -57 57 -57 4 0 18 -11
31 -24 22 -23 22 -28 22 -271 0 -193 -3 -246 -12 -242 -10 3 -12 48 -10 193 2
104 -1 203 -7 219 -6 21 -10 -35 -10 -192 -1 -142 -5 -223 -11 -223 -6 0 -10
93 -10 259 0 143 -3 262 -7 264 -5 3 -7 -114 -5 -259 2 -178 -1 -264 -8 -264
-6 0 -10 70 -11 203 -1 111 -5 216 -9 232 -4 17 -8 24 -9 18 -1 -9 -17 -13
-47 -13 l-45 0 3 95 c3 91 2 94 -14 73 -12 -17 -14 -25 -5 -30 9 -6 9 -8 0 -8
-9 0 -13 -20 -13 -65 0 -58 -2 -65 -20 -65 -17 0 -19 8 -22 70 -3 78 2 76 -79
22 -38 -25 -77 -38 -86 -28 -4 3 21 33 54 66 76 76 101 108 43 55 -92 -82
-173 -162 -233 -229 -62 -69 -61 -75 0 -30 17 13 40 24 50 25 16 0 16 1 -2 8
-15 6 -12 9 19 14 44 7 62 1 47 -17 -6 -7 -6 -17 -1 -26 17 -26 11 -30 -49
-30 -42 0 -65 -5 -81 -18 -23 -18 -22 -18 42 -9 36 6 73 7 82 4 37 -14 10 -25
-77 -29 -81 -4 -96 -8 -118 -29 -13 -13 -74 -62 -134 -109 -143 -112 -206
-170 -198 -183 3 -5 2 -7 -4 -4 -5 3 -27 -9 -49 -28 -21 -19 -43 -35 -49 -35
-5 1 35 42 90 92 55 50 130 123 166 161 40 41 68 64 71 57 3 -9 22 4 53 33 27
26 45 50 42 54 -4 3 -16 -2 -27 -12 -18 -16 -20 -16 -20 -2 0 9 20 36 43 59
95 93 205 196 260 242 32 27 55 51 53 54 -11 10 -84 -52 -291 -245 -74 -71
-89 -90 -90 -115 0 -40 -21 -47 -28 -11 -6 25 3 37 76 108 46 44 135 127 199
185 64 57 115 106 113 108 -5 5 -33 -15 -96 -70 -82 -71 -141 -120 -179 -148
-19 -14 -62 -53 -97 -86 -35 -34 -63 -57 -63 -52 0 12 174 182 251 245 103 84
196 179 219 224 7 13 -21 -8 -61 -47 -41 -39 -126 -117 -189 -174 -268 -242
-413 -388 -322 -324 33 23 29 -6 -5 -43 -115 -123 -143 -156 -143 -165 0 -6
59 47 130 118 125 124 163 156 143 121 -11 -21 -263 -257 -273 -257 -4 0 -10
-9 -13 -21 -7 -26 -5 -24 138 105 173 157 175 154 6 -11 -142 -138 -159 -151
-189 -150 -26 2 -38 -4 -50 -23 -10 -13 -11 -21 -4 -16 19 12 14 -9 -8 -29
-11 -10 -20 -23 -20 -29 0 -6 5 -5 12 2 15 15 32 16 22 1 -3 -6 -7 -84 -8
-172 l-1 -162 -40 -6 c-39 -6 -39 -6 13 -8 l52 -1 2 143 c4 265 5 287 14 287
5 0 10 -11 12 -25 4 -32 23 -32 59 3 17 15 43 34 59 42 16 8 43 29 59 46 43
43 77 64 100 59 11 -2 106 -4 211 -4 l192 -1 -2 -22 -1 -23 -194 2 c-175 2
-197 0 -230 -18 l-36 -20 605 5 c590 5 776 12 701 29 -18 4 -112 7 -208 7
-156 0 -174 2 -169 16 3 9 6 18 6 20 0 2 106 4 235 4 l236 0 -103 91 c-146
129 -155 139 -137 139 8 0 51 -32 94 -71 44 -40 98 -85 119 -100 22 -16 82
-68 133 -116 83 -76 92 -88 75 -94 -11 -4 -23 -18 -27 -30 -6 -18 -2 -28 19
-44 26 -21 26 -21 26 -163 0 -112 -3 -141 -12 -135 -7 4 -25 6 -40 4 l-28 -3
-1 139 c-1 76 -2 153 -4 171 -1 17 2 32 7 32 5 0 6 5 3 10 -3 6 -19 10 -36 10
-20 0 -29 5 -29 16 0 16 10 16 55 -1 11 -5 17 -5 13 0 -4 4 -4 13 2 20 6 8 -9
30 -51 71 -60 59 -60 59 -44 22 8 -21 15 -41 14 -44 0 -3 3 -9 7 -12 4 -4 4
-1 0 6 -10 16 6 15 30 -3 15 -11 16 -15 4 -15 -9 0 -6 -6 10 -16 l25 -15 -25
7 c-14 4 -326 9 -695 11 -616 5 -846 0 -831 -15 4 -3 336 -4 740 -3 l733 3 6
-21 c3 -12 1 -24 -5 -27 -5 -3 -8 -15 -5 -25 3 -10 1 -22 -5 -25 -6 -4 -6 -9
2 -14 25 -15 2 -41 -32 -38 -27 2 -34 8 -36 28 -7 48 -13 50 -198 50 -116 0
-174 -4 -174 -11 0 -5 5 -7 10 -4 7 4 10 -52 10 -159 0 -112 -3 -166 -11 -166
-7 0 -10 32 -9 93 1 50 1 119 0 152 -2 49 -4 54 -10 30 -7 -30 -8 -84 -9 -457
-1 -126 -5 -188 -12 -188 -7 0 -9 60 -7 190 3 171 0 207 -15 182 -3 -4 -7 -87
-8 -185 l-4 -177 -242 0 c-155 0 -243 4 -243 10 0 8 321 18 363 11 4 0 7 3 7
9 0 5 22 8 50 7 43 -3 50 -1 50 15 0 16 -10 18 -100 18 -82 0 -98 -3 -94 -14
4 -12 -12 -15 -88 -16 -113 -2 -161 -1 -167 5 -2 3 36 5 85 6 144 2 156 17 14
18 -85 1 -120 4 -110 11 8 5 66 10 128 10 64 0 111 4 108 9 -3 5 1 12 10 15
15 6 16 22 12 126 -4 97 -2 120 8 120 11 0 14 -27 14 -128 0 -70 -4 -132 -10
-137 -6 -7 28 -9 90 -7 l100 3 1 147 c1 81 3 208 5 282 2 74 0 141 -5 149 -5
8 -12 -107 -16 -278 -4 -160 -11 -291 -16 -291 -5 0 -9 24 -9 53 l0 52 -66 -3
c-52 -3 -65 -1 -62 10 4 9 24 13 69 13 l64 0 0 68 c0 71 -7 98 -19 78 -4 -6
-32 -11 -62 -11 -41 0 -54 4 -54 15 0 12 14 15 70 15 40 0 70 4 70 10 0 6 -28
10 -64 10 -50 0 -65 4 -70 16 -5 14 3 16 64 12 l70 -4 -1 86 c0 47 -3 79 -6
73 -3 -9 -27 -13 -68 -13 -62 0 -64 1 -68 28 -2 15 -5 -27 -6 -93 -1 -116 -11
-166 -24 -131 -3 8 -3 17 1 20 4 2 7 17 6 33 -1 15 -3 62 -5 103 l-2 75 -7
-70 c-4 -38 -8 -148 -9 -242 l-1 -173 -100 0 -100 0 0 29 c0 17 5 33 10 36 6
4 10 91 10 227 0 122 -3 219 -6 216 -3 -3 -5 -81 -5 -172 0 -91 -4 -166 -9
-166 -5 0 -11 -39 -12 -87 -2 -58 -7 -88 -15 -91 -10 -3 -13 51 -14 245 0 136
-4 257 -8 268 -14 35 -24 -186 -19 -426 3 -128 2 -229 -3 -229 -5 0 -9 80 -10
178 -1 248 -16 273 -20 32 -3 -217 -7 -199 -11 48 -3 151 -2 162 15 162 15 0
18 7 15 33 l-3 32 -68 0 c-47 0 -67 4 -67 13 0 12 34 17 98 14 22 -1 32 3 32
13 0 12 -14 15 -65 15 -51 0 -65 3 -65 15 0 12 14 15 65 15 51 0 65 3 65 15 0
12 -13 15 -60 15 -45 0 -60 3 -60 14 0 8 12 17 28 19 l27 4 -27 2 c-21 1 -28
6 -28 20 0 15 8 21 38 24 l37 4 -36 1 c-32 2 -36 5 -36 28 0 26 0 26 56 19 31
-4 92 -8 136 -9 44 -2 90 -6 102 -9 13 -3 25 -2 27 2 8 13 70 16 356 15 151
-1 266 1 255 5 -11 3 10 8 50 12 39 3 -243 6 -625 7 -471 1 -690 -2 -680 -8 9
-6 69 -10 140 -8 185 3 169 20 163 -185 -3 -95 -7 -174 -9 -176 -2 -2 -4 72
-5 165 0 104 -4 161 -9 149 -5 -11 -9 -14 -9 -8 -1 19 -51 28 -62 12 -6 -10
-9 -11 -9 -1 0 8 -19 12 -67 11 -43 -1 -57 -4 -38 -8 26 -4 23 -6 -20 -11
l-50 -5 -2 -110 c-1 -60 -2 -127 -2 -147 -1 -21 -5 -38 -11 -38 -6 0 -11 57
-12 148 l-2 147 -3 -145 c-5 -214 -23 -203 -23 15 0 106 -4 175 -9 170 -5 -6
-11 -84 -15 -174 -3 -90 -8 -166 -11 -169 -3 -3 -5 65 -5 152 0 134 -2 157
-16 163 -27 10 -34 -18 -34 -147 0 -124 -9 -171 -25 -133 -4 10 -10 70 -12
134 l-6 115 32 36 c17 20 31 42 31 51 0 8 7 20 15 27 9 7 13 15 11 18 -3 2
-18 -6 -33 -19 -19 -17 -27 -31 -25 -48 3 -21 0 -23 -25 -19 l-29 4 4 -173 c4
-166 4 -173 -15 -173 -10 0 -24 -5 -30 -11 -7 -7 -35 -10 -72 -7 -46 3 -61 1
-61 -9 0 -9 15 -13 50 -13 43 0 50 -3 50 -20 0 -16 -7 -20 -38 -20 -21 0 -43
5 -50 12 -9 9 -12 -17 -12 -120 0 -99 -3 -132 -12 -132 -10 0 -13 38 -13 157
0 148 1 159 20 167 14 6 16 10 7 13 -8 3 -21 -2 -29 -10 -13 -13 -16 -45 -15
-184 0 -128 -3 -173 -14 -190 -20 -32 -44 -29 -46 5 0 16 -3 10 -7 -18 -7 -51
8 -48 -154 -34 -49 4 -94 12 -100 18 -7 6 -28 21 -47 34 -40 25 -24 30 20 7
25 -13 29 -13 24 -1 -8 21 13 29 75 27 70 -1 51 15 -28 25 -38 5 -55 3 -61 -6
-7 -11 -19 -11 -67 -1 -32 7 -76 11 -98 9 l-39 -3 76 -45 c43 -25 73 -49 69
-53 -5 -5 -19 -4 -30 3 -12 6 -27 10 -34 7 -6 -2 4 -11 22 -20 25 -12 37 -14
50 -5 14 9 28 7 60 -5 25 -10 69 -17 110 -17 99 0 106 -4 82 -46 -12 -19 -16
-36 -10 -39 16 -11 29 5 29 35 0 33 23 44 76 38 31 -3 36 -21 8 -27 -10 -2
-36 -15 -58 -29 l-41 -25 29 -21 c16 -12 41 -31 55 -44 l26 -23 -75 6 c-145
11 -152 13 -146 43 6 25 1 29 -46 50 -29 12 -59 22 -66 22 -18 0 -82 29 -103
47 -15 13 -17 11 -17 -24 -1 -21 5 -58 13 -83 7 -25 16 -63 20 -85 11 -73 14
-76 109 -120 50 -23 102 -46 116 -50 14 -4 32 -14 41 -22 10 -8 39 -21 65 -28
121 -35 367 -126 439 -162 112 -57 293 -127 405 -157 124 -34 375 -75 420 -69
317 42 539 106 800 231 58 27 130 58 160 68 94 30 451 167 542 208 52 23 57
28 62 63 3 21 13 67 23 103 9 36 18 85 21 109 l4 44 -25 -19 c-13 -11 -70 -38
-126 -59 -56 -22 -101 -45 -101 -52 0 -17 17 -17 27 1 10 16 53 40 60 33 2 -3
-9 -15 -26 -28 -17 -12 -28 -26 -25 -30 6 -10 -12 -15 -108 -33 -62 -12 -114
-13 -280 -6 -112 5 -316 10 -455 10 -138 0 -258 3 -267 6 -10 4 -16 18 -16 39
l0 32 71 -5 c53 -4 70 -2 65 7 -4 6 -24 12 -44 13 l-37 1 35 4 c19 3 42 10 50
18 25 22 55 26 76 10 25 -19 51 -19 51 0 0 8 -4 15 -9 15 -5 0 -7 4 -4 8 7 12
126 14 126 2 0 -6 -6 -10 -13 -10 -8 0 -22 -9 -32 -20 -10 -11 -28 -20 -41
-20 -25 0 -74 -19 -74 -30 0 -3 16 -4 35 -2 19 2 49 -1 66 -7 29 -10 31 -10
26 11 -9 34 19 58 67 59 39 0 40 1 16 12 -25 11 -25 11 9 15 39 4 57 -9 46
-35 -7 -17 -8 -17 -15 2 -7 17 -9 17 -9 3 -1 -14 -10 -18 -40 -18 -22 0 -43
-4 -46 -10 -4 -6 13 -10 43 -10 27 0 69 -7 92 -15 24 -8 45 -13 48 -10 3 3 -9
25 -27 50 -18 25 -27 45 -21 45 7 0 40 -22 74 -49 47 -37 70 -48 99 -49 20 -1
37 3 37 8 0 6 19 10 43 10 63 0 89 10 84 30 -3 14 3 20 25 24 42 8 45 8 45 -9
0 -8 -8 -15 -18 -15 -10 0 -20 -4 -23 -9 -3 -5 24 -12 60 -16 l67 -7 -26 -17
c-32 -21 -72 -71 -57 -71 19 0 120 91 120 108 0 12 -3 13 -12 4 -7 -7 -26 -12
-44 -12 -26 0 -34 6 -44 30 -7 17 -11 32 -9 34 2 3 54 7 114 11 66 4 119 13
133 21 16 11 27 12 41 4 30 -16 66 -12 92 10 24 19 24 19 3 20 -12 0 -27 -6
-33 -14 -13 -15 -55 -10 -45 6 13 20 88 68 108 68 27 0 53 17 43 27 -5 4 -29
7 -55 6 -45 -2 -46 -2 -22 12 19 11 21 14 7 15 -36 0 -153 -92 -141 -111 8
-14 -33 -28 -97 -34 -35 -3 -83 -8 -105 -11 -71 -9 -74 -2 -75 219 -1 132 -4
176 -9 142 -12 -74 -12 -330 0 -361 6 -15 9 -28 8 -29 -2 -1 -22 -5 -45 -9
-50 -7 -61 11 -13 21 17 3 29 8 26 10 -4 4 -336 6 -683 4 l-203 -1 -1 -82 c-1
-69 -3 -76 -9 -43 -4 22 -10 63 -12 92 l-5 52 41 6 c60 9 827 11 856 3 14 -4
19 -5 13 -2 -10 4 -13 68 -15 262 -1 210 -2 239 -9 157 -4 -55 -8 -126 -9
-157 -1 -32 -4 -58 -6 -58 -1 0 -9 28 -15 62 -12 59 -13 61 -21 33 -5 -17 -8
-68 -7 -115 1 -58 -2 -85 -10 -88 -9 -3 -11 25 -9 112 2 64 0 116 -4 116 -3 0
-4 9 -1 20 6 21 23 28 23 9 0 -6 11 -1 24 12 l24 23 -24 19 c-13 10 -40 20
-60 22 -20 2 -41 9 -45 17 -10 15 -12 238 -3 263 6 14 11 12 35 -11 16 -15 32
-25 35 -21 9 9 -37 63 -63 76 -13 6 -23 17 -23 25 0 8 -4 18 -10 21 -6 4 -9
-62 -8 -186 2 -144 -1 -194 -10 -197 -9 -3 -12 37 -12 165 l0 169 -35 -4 c-26
-3 -35 0 -35 11 0 16 44 32 60 22 6 -4 10 5 10 19 0 52 23 75 34 34 3 -13 33
-50 66 -83 68 -67 72 -45 5 27 -22 24 -47 54 -56 68 -14 21 -19 23 -49 14 -33
-9 -36 -7 -113 66 -44 41 -84 74 -89 72 -14 -4 -129 107 -294 283 -76 81 -193
202 -258 269 -65 66 -127 135 -137 151 l-19 30 1 -45z m-91 -270 c0 -44 -4
-60 -14 -60 -22 0 -29 92 -8 108 9 6 17 12 19 12 2 0 3 -27 3 -60z m67 -32
c-2 -18 -4 -6 -4 27 0 33 2 48 4 33 2 -15 2 -42 0 -60z m-117 -208 c0 -147 -4
-260 -9 -260 -5 0 -11 113 -13 253 -3 227 0 266 20 267 1 0 2 -117 2 -260z
m-40 -16 c0 -167 -3 -253 -10 -249 -6 4 -10 98 -10 249 0 214 3 256 17 256 2
0 3 -115 3 -256z m-87 214 c-4 -22 -39 -46 -50 -34 -8 7 10 36 22 36 7 0 16 7
19 16 9 25 15 13 9 -18z m52 -212 c0 -214 -4 -260 -21 -243 -3 3 -8 107 -11
232 -5 187 -3 229 8 236 8 5 16 9 19 9 3 0 5 -105 5 -234z m250 174 c-3 -5
-31 -10 -61 -10 -52 0 -54 -1 -44 -20 15 -27 9 -82 -9 -88 -11 -4 -13 6 -9 46
4 39 1 52 -9 57 -8 3 -19 3 -24 -1 -5 -3 -9 -1 -9 5 0 13 21 16 103 19 44 1
66 -1 62 -8z m45 -210 c0 -115 -2 -210 -4 -210 -2 0 -11 -3 -20 -6 -13 -5 -16
1 -15 27 0 28 2 31 9 14 6 -13 8 14 7 75 l-1 95 -6 -75 -6 -75 -2 72 c-1 39 3
75 8 78 6 3 10 18 10 33 l0 27 -80 -3 c-68 -3 -79 -1 -74 12 7 17 65 19 77 2
5 -8 10 -7 16 3 5 8 19 12 35 9 26 -5 26 -5 26 63 0 39 4 69 10 69 6 0 10 -77
10 -210z m-185 28 c8 -176 5 -230 -12 -236 -10 -3 -13 40 -13 192 0 109 4 196
9 196 5 0 12 -69 16 -152z m153 114 c-3 -25 -10 -37 -26 -43 -21 -8 -22 -6
-22 35 0 40 2 44 26 44 23 0 25 -4 22 -36z m-68 -12 c0 -22 -4 -40 -10 -40 -5
0 -10 18 -10 40 0 22 5 40 10 40 6 0 10 -18 10 -40z m-240 -90 c0 -11 -36 -17
-145 -24 l-80 -5 24 19 c19 17 38 20 112 20 50 0 89 -4 89 -10z m695 -10 c18
-20 17 -20 -51 -22 -81 -3 -176 1 -182 7 -3 2 -2 11 1 20 5 12 26 15 110 15
91 0 106 -2 122 -20z m-495 -120 c0 -100 -2 -120 -15 -120 -12 0 -15 20 -15
120 0 100 3 120 15 120 13 0 15 -20 15 -120z m38 -2 c-2 -69 -7 -123 -13 -125
-6 -2 -9 40 -8 115 2 141 1 132 13 132 7 0 10 -43 8 -122z m42 7 c0 -96 -3
-115 -15 -115 -12 0 -15 19 -15 115 0 96 3 115 15 115 12 0 15 -19 15 -115z
m-280 65 c0 -6 -54 -10 -142 -10 -96 0 -138 3 -128 10 20 13 270 13 270 0z
m734 -1 c65 -18 26 -24 -129 -21 -158 3 -188 19 -50 25 44 1 94 4 110 5 17 1
48 -3 69 -9z m-734 -54 c0 -13 -26 -15 -170 -15 -96 0 -170 4 -170 9 0 17 24
19 183 20 133 1 157 -1 157 -14z m818 6 c2 -1 2 -6 0 -12 -2 -6 -68 -12 -176
-15 -171 -6 -172 -6 -172 16 0 21 1 21 173 16 94 -2 174 -5 175 -5z m-820 -63
c3 -17 -11 -18 -197 -18 -120 0 -201 4 -201 10 0 24 43 30 215 27 162 -2 180
-4 183 -19z m870 6 c12 -2 22 -9 22 -14 0 -6 -79 -10 -210 -10 -206 0 -210 0
-210 21 0 21 2 21 188 14 103 -3 197 -8 210 -11z m162 -399 c0 -145 -2 -175
-14 -175 -12 0 -15 28 -14 168 1 171 2 182 19 182 5 0 9 -72 9 -175z m-240
131 c14 -2 -30 -4 -97 -5 -68 0 -123 2 -123 7 0 6 163 5 220 -2z m100 -146 c0
-100 -4 -160 -10 -160 -6 0 -10 60 -10 160 0 100 4 160 10 160 6 0 10 -60 10
-160z m-31 88 c-1 -35 -5 -106 -9 -158 -7 -92 -7 -90 -8 63 -1 99 2 157 8 157
6 0 10 -27 9 -62z m-1099 -7 l0 -59 -39 -4 -39 -3 -4 57 c-3 57 -3 57 27 61
17 2 36 5 43 5 8 2 12 -16 12 -57z m-330 -101 c0 -93 -4 -150 -10 -150 -6 0
-10 44 -10 113 0 61 -3 129 -6 150 -5 30 -4 37 10 37 14 0 16 -18 16 -150z
m138 93 c2 56 3 57 30 57 29 0 29 0 26 -57 l-3 -58 -35 -3 -36 -2 2 62 1 63 7
-60 7 -60 1 58z m91 -5 c-1 -72 -5 -68 -12 10 -2 28 0 52 4 52 5 0 9 -28 8
-62z m918 -20 c-2 -18 -4 -6 -4 27 0 33 2 48 4 33 2 -15 2 -42 0 -60z m83 27
l0 -55 -35 0 -35 0 0 55 0 55 35 0 35 0 0 -55z m40 0 c0 -30 -4 -55 -10 -55
-5 0 -10 25 -10 55 0 30 5 55 10 55 6 0 10 -25 10 -55z m70 0 c0 -52 -1 -55
-25 -55 -24 0 -25 3 -25 55 0 52 1 55 25 55 24 0 25 -3 25 -55z m50 5 c0 -43
-3 -50 -20 -50 -17 0 -20 7 -20 50 0 43 3 50 20 50 17 0 20 -7 20 -50z m170
-15 c0 -11 -11 -15 -40 -15 -29 0 -40 4 -40 15 0 11 11 15 40 15 29 0 40 -4
40 -15z m-576 -51 c4 -9 5 -18 4 -20 -2 -1 -30 -4 -63 -5 -55 -3 -60 -1 -63
19 -3 21 1 22 56 22 46 0 61 -4 66 -16z m566 -4 c0 -16 -7 -20 -30 -20 -19 0
-33 7 -40 20 -10 18 -8 20 30 20 33 0 40 -3 40 -20z m-164 -156 c-3 -7 -26
-12 -62 -13 -67 0 -65 6 8 24 29 7 43 13 31 14 -21 1 -23 6 -23 56 0 46 3 55
18 55 14 0 14 2 3 9 -11 7 -10 10 5 13 17 3 19 -4 22 -71 2 -41 1 -80 -2 -87z
m-1248 84 l2 62 30 0 31 0 -3 -62 c-3 -63 -3 -63 -35 -66 -45 -4 -42 -20 5
-25 l37 -4 -42 -1 -43 -2 2 83 1 82 7 -65 7 -65 1 63z m89 -30 c-2 -18 -4 -4
-4 32 0 36 2 50 4 33 2 -18 2 -48 0 -65z m103 32 c0 -53 -2 -60 -20 -60 -11 0
-20 -4 -20 -10 0 -5 -9 -10 -20 -10 -13 0 -20 -7 -20 -20 0 -19 7 -20 121 -20
102 0 120 -2 110 -14 -9 -11 -35 -12 -121 -8 l-110 5 0 -154 c0 -197 -18 -189
-23 11 l-3 145 -2 -157 c-1 -100 2 -158 8 -158 6 0 10 -9 10 -20 0 -11 -7 -20
-15 -20 -11 0 -15 11 -15 40 0 22 -4 40 -10 40 -5 0 -10 -3 -10 -7 0 -5 -64
-8 -142 -8 -146 0 -166 6 -133 39 9 9 13 16 8 16 -4 0 -1 5 7 10 8 5 11 10 5
10 -6 0 -8 32 -5 87 5 84 6 87 32 94 58 15 63 9 66 -75 2 -46 -2 -83 -8 -91
-9 -11 -1 -13 45 -11 31 2 58 -1 61 -6 3 -4 15 -8 27 -9 13 -1 3 -6 -23 -14
l-45 -13 40 -1 c22 -1 50 -4 63 -7 20 -6 22 -3 22 27 l0 34 -45 -3 -45 -4 0
96 c0 57 4 96 10 96 6 0 11 -37 11 -87 1 -63 4 -76 8 -48 5 31 10 40 25 40 11
0 21 -6 24 -12 2 -7 -3 -13 -11 -13 -13 0 -13 -4 -4 -25 21 -44 27 -27 25 65
l-2 90 -148 0 c-92 0 -148 4 -148 10 0 6 57 10 150 10 l150 0 0 25 c0 14 3 24
8 24 23 -4 55 2 46 9 -12 7 -25 108 -16 117 3 3 23 5 44 5 l38 0 0 -60z m900
10 c0 -27 1 -53 1 -57 1 -5 -16 -11 -37 -14 -38 -7 -59 4 -47 24 3 5 5 29 5
53 l-1 44 39 0 40 0 0 -50z m40 -5 c0 -30 -4 -55 -10 -55 -5 0 -10 25 -10 55
0 30 5 55 10 55 6 0 10 -25 10 -55z m60 -6 c0 -52 -2 -60 -17 -57 -14 2 -19
15 -21 61 -3 52 -1 57 18 57 18 0 20 -6 20 -61z m224 26 c3 -9 -1 -18 -8 -21
-26 -10 -61 1 -64 19 -3 13 4 17 31 17 22 0 37 -6 41 -15z m-601 -2 c-18 -2
-48 -2 -65 0 -18 2 -4 4 32 4 36 0 50 -2 33 -4z m37 -23 c0 -6 -28 -10 -65
-10 -37 0 -65 4 -65 10 0 6 28 10 65 10 37 0 65 -4 65 -10z m563 -47 c7 -42
-1 -51 -43 -45 -26 4 -29 8 -28 43 0 37 2 39 33 39 30 0 33 -3 38 -37z m-1043
13 c0 -18 -22 -26 -71 -26 -32 0 -39 3 -39 20 0 18 7 20 55 20 40 0 55 -4 55
-14z m-30 -51 c0 -11 -11 -15 -39 -15 -38 0 -57 10 -44 24 3 3 24 6 45 6 27 0
38 -4 38 -15z m771 -180 c0 -113 -5 -193 -11 -199 -7 -7 -10 55 -10 193 0 146
3 202 11 199 8 -3 11 -61 10 -193z m-916 175 c4 -6 -9 -10 -32 -9 -34 1 -35 2
-13 9 35 11 38 11 45 0z m860 -11 c-31 -12 -55 -10 -55 4 0 9 11 12 38 9 30
-4 33 -6 17 -13z m20 -29 c-3 -5 -25 -10 -49 -10 -42 0 -42 0 -38 -34 2 -18
-1 -37 -7 -40 -7 -5 -11 9 -11 43 l0 51 56 0 c34 0 53 -4 49 -10z m673 -2 c-3
-7 -14 -13 -26 -12 -12 0 -152 1 -312 2 -185 1 -290 6 -290 12 0 6 112 10 316
10 248 0 315 -3 312 -12z m-908 -17 c0 -15 -10 -19 -57 -24 -32 -2 -59 -4 -60
-3 -1 1 0 12 4 24 5 19 12 22 59 22 46 0 54 -3 54 -19z m-1085 -129 c0 -72 -3
-133 -7 -137 -17 -17 -23 10 -18 87 3 47 2 104 -1 129 -7 48 -3 62 14 56 8 -3
12 -44 12 -135z m165 32 c0 -53 -4 -93 -9 -90 -10 6 -15 162 -6 177 13 20 15
6 15 -87z m39 -41 c1 -29 -3 -53 -9 -53 -6 0 -10 38 -9 98 1 82 3 90 10 52 4
-25 8 -69 8 -97z m283 -1 l3 -72 -40 1 c-39 1 -39 2 -10 9 26 7 22 8 -22 9
-71 1 -68 21 2 21 l55 0 2 88 c1 91 6 69 10 -56z m1408 107 c0 -10 -7 -19 -15
-19 -8 0 -15 -9 -15 -21 0 -11 4 -17 10 -14 7 5 10 -24 8 -86 l-3 -93 -252 -3
c-254 -3 -345 9 -165 20 146 10 317 8 348 -3 15 -6 28 -9 29 -8 8 8 11 179 4
184 -5 3 -5 13 0 22 5 9 12 25 15 34 7 23 36 12 36 -13z m-373 -64 c-6 -15
-142 -20 -152 -5 -4 6 18 10 64 10 68 0 71 1 71 24 0 13 3 33 8 43 5 13 8 8
10 -21 2 -21 1 -44 -1 -51z m43 35 c0 -37 -4 -50 -14 -50 -11 0 -13 9 -10 38
11 78 24 85 24 12z m130 38 c0 -9 4 -8 11 2 19 27 4 -135 -15 -165 l-17 -25
-146 2 c-97 2 -148 7 -150 14 -2 6 6 14 19 18 37 10 268 7 268 -3 0 -6 -19
-12 -42 -14 l-43 -4 48 -1 47 -2 0 95 c0 57 4 95 10 95 6 0 10 -6 10 -12z
m102 3 c14 8 17 0 22 -53 2 -35 4 -83 3 -108 l-2 -45 -41 3 c-22 2 -48 4 -57
6 -19 2 -36 16 -20 16 19 0 33 51 33 120 0 68 0 69 23 61 13 -5 30 -5 39 0z
m144 -28 c-11 -11 -19 6 -11 24 8 17 8 17 12 0 3 -10 2 -21 -1 -24z m-1358 5
c-2 -13 -6 -22 -10 -20 -5 1 -21 2 -38 2 -23 0 -30 4 -30 20 0 17 7 20 41 20
36 0 40 -2 37 -22z m732 2 c0 -11 -6 -20 -12 -20 -7 0 -23 -3 -35 -6 -20 -5
-23 -2 -23 20 0 23 4 26 35 26 28 0 35 -4 35 -20z m344 -21 c-3 -5 -21 -9 -40
-9 -28 0 -35 4 -32 17 4 24 50 34 65 15 7 -8 10 -19 7 -23z m-1376 9 c2 -9 -4
-18 -13 -21 -11 -5 -15 0 -15 19 0 28 23 29 28 2z m160 15 c-16 -2 -40 -2 -55
0 -16 2 -3 4 27 4 30 0 43 -2 28 -4z m982 -14 c0 -15 -5 -20 -22 -17 -34 5
-37 38 -4 38 20 0 26 -5 26 -21z m60 17 c0 -2 3 -11 6 -20 5 -13 -1 -16 -25
-16 -24 0 -31 4 -31 20 0 15 7 20 25 20 14 0 25 -2 25 -4z m-397 -13 c4 -3 2
-12 -4 -20 -16 -18 -119 -18 -119 0 0 8 3 17 7 20 8 9 108 9 116 0z m-633 -19
c0 -11 -5 -14 -16 -10 -9 3 -29 6 -45 6 -16 0 -29 5 -29 10 0 6 20 10 45 10
35 0 45 -4 45 -16z m-541 -101 c1 -67 -2 -103 -8 -103 -7 0 -11 35 -11 95 0
57 -4 95 -10 95 -6 0 -10 -40 -10 -100 0 -92 -2 -100 -19 -100 -18 0 -19 8
-18 109 l1 110 36 -2 37 -1 2 -103z m2032 88 c6 10 9 6 9 -13 0 -16 -3 -28 -7
-28 -5 0 -8 -33 -8 -74 0 -65 -7 -99 -18 -85 -2 2 -1 54 1 114 3 61 7 101 10
91 3 -15 6 -16 13 -5z m-1363 -23 c3 -15 -4 -18 -37 -18 -35 0 -41 3 -41 21 0
17 5 20 37 17 27 -2 39 -8 41 -20z m713 12 c18 0 28 -4 24 -10 -8 -13 -102
-13 -110 -1 -6 11 23 21 43 15 8 -2 27 -4 43 -4z m367 -7 c2 -9 -10 -13 -42
-13 -43 0 -55 7 -39 24 12 11 76 2 81 -11z m-1210 -5 c-3 -8 -21 -13 -43 -13
-22 0 -40 5 -42 13 -3 8 9 12 42 12 33 0 45 -4 43 -12z m7 -38 c4 -6 -13 -10
-44 -10 -28 0 -51 5 -51 10 0 6 20 10 44 10 25 0 48 -4 51 -10z m125 -5 c0
-11 -11 -15 -40 -15 -29 0 -40 4 -40 15 0 11 11 15 40 15 29 0 40 -4 40 -15z
m490 5 c11 -7 -3 -10 -47 -10 -36 0 -63 4 -63 10 0 13 90 13 110 0z m250 -10
c0 -6 -27 -10 -60 -10 -33 0 -60 4 -60 10 0 6 27 10 60 10 33 0 60 -4 60 -10z
m340 0 c0 -6 -57 -10 -150 -10 -93 0 -150 4 -150 10 0 6 57 10 150 10 93 0
150 -4 150 -10z m-581 -26 c8 -8 -5 -11 -61 -17 -51 -5 -58 -3 -58 12 0 15 8
17 58 13 31 -2 59 -6 61 -8z m-499 -14 c0 -17 -7 -20 -40 -20 -33 0 -40 3 -40
20 0 17 7 20 40 20 33 0 40 -3 40 -20z m730 5 c0 -12 -13 -15 -55 -15 -30 0
-55 4 -55 9 0 9 17 12 93 19 9 1 17 -5 17 -13z m720 -14 c0 -11 -3 -22 -7 -24
-5 -3 -8 6 -8 19 0 13 3 24 8 24 4 0 7 -9 7 -19z m-1222 -18 c-21 -2 -55 -2
-75 0 -21 2 -4 4 37 4 41 0 58 -2 38 -4z m502 -38 c0 -12 -13 -15 -55 -15 -30
0 -55 4 -55 9 0 14 19 19 68 20 31 1 42 -3 42 -14z m715 -22 c-3 -50 -4 -53
-13 -53 -11 0 -12 38 -2 66 13 34 17 30 15 -13z m-1440 17 c-4 -6 -53 -10
-116 -10 -66 0 -109 4 -109 10 0 6 45 10 116 10 74 0 113 -4 109 -10z m1934
-23 c-22 -18 -119 -65 -119 -59 0 16 74 62 99 62 13 0 22 -1 20 -3z m-3159
-32 c34 -36 21 -39 -20 -4 -22 18 -29 29 -19 29 8 0 26 -11 39 -25z m732 18
c-40 -2 -103 -2 -140 0 -37 2 -4 3 73 3 77 0 107 -2 67 -3z m1228 -23 c0 -18
-7 -20 -60 -20 -53 0 -60 2 -60 20 0 18 7 20 60 20 53 0 60 -2 60 -20z m660
-1 c0 -15 -4 -19 -16 -15 -9 3 -148 6 -310 6 -184 0 -294 4 -294 10 0 9 99 13
448 18 169 2 172 2 172 -19z m-1682 -1 c-3 -9 -72 -13 -256 -16 -225 -3 -252
-2 -252 12 0 14 29 16 256 16 194 0 255 -3 252 -12z m292 -3 c0 -12 -19 -15
-115 -15 -96 0 -115 3 -115 15 0 12 19 15 115 15 96 0 115 -3 115 -15z m38
-71 c4 2 5 -27 4 -66 -5 -89 -20 -76 -22 17 -2 79 1 101 7 67 2 -12 7 -20 11
-18z m-38 11 c0 -12 -59 -15 -427 -17 -236 -2 -430 -2 -433 0 -3 2 4 10 14 18
30 21 846 21 846 -1z m523 5 c9 0 17 -4 17 -10 0 -6 -85 -10 -234 -10 -205 0
-258 5 -241 21 2 2 102 3 222 2 120 -2 226 -3 236 -3z m-696 -37 c-3 -5 26 -8
64 -8 38 0 69 2 69 5 0 3 10 7 22 7 16 2 19 0 9 -6 -10 -7 -10 -10 -1 -16 9
-6 9 -10 -1 -16 -10 -6 -11 -9 -1 -9 6 0 12 -7 12 -15 0 -19 -79 -20 -132 -2
-31 11 -35 16 -25 27 10 10 8 12 -11 7 -14 -3 -20 -1 -15 6 4 7 0 8 -13 3 -28
-12 -84 -25 -84 -20 0 7 82 42 98 43 7 1 11 -2 9 -6z m923 -4 c10 -5 -3 -8
-37 -9 -49 0 -53 -2 -53 -24 0 -14 -4 -28 -10 -31 -10 -6 -15 57 -5 67 9 9 89
6 105 -3z m540 -35 c0 -31 -2 -34 -19 -24 -19 10 -51 48 -51 60 0 3 16 4 35 2
32 -4 35 -7 35 -38z m-2007 29 c-13 -2 -33 -2 -45 0 -13 2 -3 4 22 4 25 0 35
-2 23 -4z m47 -15 c0 -12 -7 -30 -17 -40 -15 -17 -15 -18 3 -18 11 0 24 -4 30
-9 11 -11 106 3 131 19 15 10 15 11 1 6 -55 -17 -88 -18 -88 -3 0 15 48 37 82
37 12 0 22 -9 25 -21 4 -14 10 -18 22 -13 9 4 30 9 46 12 17 3 41 13 54 23 31
25 38 24 45 -7 6 -21 11 -25 34 -20 15 3 50 8 77 12 45 6 48 5 31 -8 -18 -14
-16 -15 27 -20 26 -3 54 -12 64 -19 10 -9 34 -13 65 -11 38 3 48 1 48 -11 0
-9 3 -22 6 -30 5 -13 -44 -15 -370 -18 -324 -4 -405 -8 -385 -22 2 -2 153 0
334 4 372 9 1611 2 1810 -10 111 -6 150 -4 270 16 77 12 158 29 179 38 51 21
59 10 17 -25 -33 -28 -33 -28 -10 -32 15 -2 -48 -27 -163 -66 -103 -34 -194
-59 -201 -56 -8 3 -52 -9 -97 -27 -156 -60 -153 -59 -625 -69 -242 -5 -458 -5
-480 0 -36 7 -105 7 -337 0 -43 -2 -75 -7 -72 -11 3 -5 -66 -9 -153 -10 -87 0
-169 -2 -183 -4 -54 -8 -211 16 -292 44 -45 16 -121 38 -168 49 -89 21 -150
41 -215 68 -29 12 -35 18 -24 24 7 5 16 5 19 1 6 -9 48 -25 159 -57 65 -19 86
-22 92 -13 5 9 11 10 21 2 7 -6 31 -16 53 -23 22 -7 72 -26 110 -44 l70 -31
165 2 c91 1 182 5 203 10 24 5 -34 8 -165 8 l-203 1 -115 42 c-63 23 -119 47
-124 52 -13 13 85 -16 144 -42 56 -25 212 -38 330 -28 47 4 72 8 55 9 -16 1
-100 6 -185 10 -140 8 -165 12 -257 44 -97 34 -103 35 -103 16 0 -10 -4 -19
-8 -19 -7 0 -243 80 -302 102 -23 9 -24 10 -7 20 17 9 15 11 -14 27 -54 29
-46 42 13 21 88 -30 426 -66 386 -40 -10 6 -18 20 -18 30 0 13 -12 25 -34 34
-46 19 -53 34 -21 46 14 5 23 14 20 20 -3 5 0 10 9 10 8 0 17 -6 19 -12 4 -9
12 -5 26 12 11 14 21 19 21 12 0 -10 8 -12 31 -7 22 5 36 2 50 -11 18 -17 19
-16 19 14 0 18 5 32 10 32 6 0 10 -10 10 -22z m93 12 c-18 -4 -41 -18 -52 -31
-18 -22 -20 -22 -26 -6 -14 35 1 47 57 46 47 -1 49 -2 21 -9z m141 -5 c11 -8
15 -15 9 -15 -7 0 -15 5 -18 10 -3 6 -17 7 -30 4 -12 -3 -26 -1 -29 5 -11 17
46 13 68 -4z m1766 -20 c0 -19 -4 -35 -10 -35 -5 0 -10 16 -10 35 0 19 5 35
10 35 6 0 10 -16 10 -35z m84 10 c9 -13 16 -27 16 -30 0 -3 -20 -5 -45 -5 -25
0 -45 5 -45 10 0 6 9 10 21 10 21 0 21 0 -2 20 l-24 19 31 1 c23 0 36 -7 48
-25z m-864 5 c10 -7 -66 -10 -240 -10 -140 0 -250 4 -243 8 18 11 466 14 483
2z m685 -21 c14 -22 -3 -18 -26 7 -23 25 -23 26 -2 15 12 -6 25 -16 28 -22z
m688 -22 c-19 -31 -26 -35 -147 -73 -32 -11 32 60 73 80 20 10 47 23 61 30 32
16 36 4 13 -37z m-1211 31 c-17 -17 -42 -19 -42 -2 0 9 10 14 27 14 21 0 24
-3 15 -12z m-1916 -28 c34 -17 65 -37 67 -44 3 -8 19 -17 36 -21 17 -4 31 -11
31 -17 0 -6 -8 -7 -17 -3 -10 3 -46 13 -80 21 -34 8 -68 17 -76 20 -22 8 -49
74 -30 74 3 0 34 -14 69 -30z m1764 -25 c0 -13 -35 -15 -255 -15 -156 0 -255
4 -255 10 0 11 79 15 328 18 156 2 182 0 182 -13z m-12 -61 c-7 -6 -450 -6
-456 1 -3 3 100 5 228 5 128 0 231 -2 228 -6z m1265 -104 c46 0 -135 -67 -258
-95 -38 -9 -113 -29 -165 -45 -165 -50 -195 -53 -440 -45 -170 5 -222 4 -214
-5 8 -8 76 -12 218 -13 113 -1 197 -5 186 -9 -12 -4 -19 -12 -16 -17 7 -11 76
3 138 29 99 42 74 17 -44 -44 -260 -136 -508 -219 -757 -256 -126 -18 -140
-19 -245 -4 -158 22 -340 68 -496 126 -173 64 -445 198 -403 198 19 0 152 -50
186 -70 42 -25 312 -126 389 -146 33 -8 67 -13 75 -10 9 4 11 2 7 -6 -5 -8 5
-9 37 -5 24 3 36 3 27 0 -10 -2 -18 -9 -18 -14 0 -6 4 -8 8 -5 4 2 59 -9 122
-25 151 -39 210 -40 334 -4 55 16 94 31 88 33 -7 2 -40 -5 -74 -16 -127 -41
-160 -44 -261 -22 -51 11 -112 26 -137 34 l-44 13 44 6 c88 12 475 19 500 9
21 -8 15 -9 -30 -8 -30 0 -147 -1 -260 -3 -159 -2 -197 -5 -170 -13 30 -9 236
-6 440 6 54 3 141 23 193 44 21 8 44 15 52 15 8 0 15 4 15 9 0 5 4 7 9 3 5 -3
12 -1 16 4 3 5 13 9 23 8 9 0 61 18 115 41 54 23 102 40 107 37 4 -3 7 2 6 10
-3 19 -16 32 -16 15 0 -7 -3 -10 -7 -7 -3 4 -40 -11 -80 -33 -81 -43 -88 -46
-77 -29 5 8 0 10 -17 6 -13 -3 -253 -8 -534 -12 -280 -3 -527 -10 -547 -14
-41 -10 -114 11 -243 67 -38 17 -83 33 -99 37 -15 3 -27 8 -25 9 2 2 140 10
306 17 166 7 300 16 297 21 -5 7 145 14 186 8 42 -5 22 -16 -33 -17 -68 -2
-151 -12 -145 -18 2 -2 105 2 228 9 271 16 190 13 595 24 310 8 345 10 395 30
150 57 193 72 197 68 2 -2 -20 -13 -49 -25 -29 -11 -47 -20 -41 -20 7 -1 30 5
50 13 21 8 70 24 108 35 191 54 215 62 209 73 -5 8 -1 9 10 5 10 -4 23 -7 29
-7z m-2635 -142 c12 1 22 -3 22 -9 0 -5 4 -8 10 -4 11 6 86 -23 78 -30 -6 -7
-94 11 -123 24 -11 5 -33 14 -50 20 -30 11 -30 11 5 4 19 -3 45 -6 58 -5z
m2252 -17 c0 -5 -11 -12 -24 -15 -13 -3 -31 -9 -40 -12 -9 -3 -16 -2 -16 3 0
5 17 14 38 20 20 6 38 11 40 12 1 0 2 -3 2 -8z m-571 -170 c10 -7 5 -11 -17
-16 -18 -3 -37 -3 -43 1 -7 4 -9 3 -5 -4 7 -11 -20 -23 -64 -28 -23 -3 -88
-12 -100 -14 -3 0 2 -5 10 -11 12 -9 11 -9 -5 -2 -11 4 -162 8 -335 9 -254 0
-328 4 -380 17 -132 32 -125 36 75 38 222 2 825 14 840 17 6 1 16 -2 24 -7z"/>
<path d="M3670 6889 c-60 -17 -62 -18 -20 -14 25 2 61 11 80 19 47 21 19 18
-60 -5z"/>
<path d="M799 6885 c18 -8 47 -15 65 -14 27 1 24 3 -19 15 -65 18 -89 17 -46
-1z"/>
<path d="M1403 6873 c53 -2 141 -2 195 0 53 1 9 3 -98 3 -107 0 -151 -2 -97
-3z"/>
<path d="M2963 6873 c48 -2 125 -2 170 0 45 1 6 3 -88 3 -93 0 -130 -2 -82 -3z"/>
<path d="M1240 6862 c0 -6 21 -13 48 -17 60 -7 124 -24 139 -37 13 -10 394
-10 698 2 l190 7 -150 3 -150 3 140 13 c77 7 211 13 298 13 112 1 157 4 157
13 0 12 -329 5 -500 -12 -200 -20 -714 -10 -837 16 -21 4 -33 3 -33 -4z m709
-37 c-3 -2 -108 -6 -234 -8 -127 -3 -192 -1 -145 2 100 8 385 13 379 6z"/>
<path d="M3185 6854 c-35 -9 -118 -14 -275 -15 -124 0 -243 -5 -265 -10 -26
-5 44 -7 195 -5 129 2 222 0 205 -4 -16 -4 -93 -9 -170 -11 l-140 -3 165 -6
c127 -4 159 -7 140 -15 -16 -7 -139 -9 -360 -5 -184 3 -396 3 -470 0 l-135 -5
100 -7 c55 -4 145 -8 200 -8 l100 -2 -87 -11 c-48 -7 -90 -15 -94 -19 -9 -10
165 2 201 13 17 6 143 13 280 16 l250 6 70 38 c39 21 89 41 113 45 23 4 45 11
48 15 7 12 -11 10 -71 -7z"/>
<path d="M1300 6810 c8 -5 24 -10 34 -10 26 0 18 6 -19 14 -22 5 -26 4 -15 -4z"/>
<path d="M2430 6808 c-19 -6 -30 -12 -25 -14 6 -2 30 2 55 10 25 8 36 14 25
14 -11 0 -36 -4 -55 -10z"/>
<path d="M1153 6793 c4 -6 28 -16 54 -22 66 -15 193 -29 187 -20 -2 4 -32 10
-66 14 -68 7 -133 20 -163 31 -12 5 -16 4 -12 -3z"/>
<path d="M1395 6779 c25 -12 51 -17 70 -13 22 4 26 2 16 -5 -12 -7 -7 -12 20
-19 31 -8 68 -3 41 6 -7 2 -12 8 -12 13 0 5 89 9 209 9 147 0 212 3 217 11 5
8 0 10 -17 6 -45 -11 -526 -9 -547 2 -12 6 -24 11 -29 10 -4 0 10 -9 32 -20z"/>
<path d="M3311 6764 c-36 -13 -95 -26 -135 -29 -83 -6 -78 0 19 19 57 11 63
14 32 15 -21 0 -63 -8 -95 -18 -74 -25 -116 -29 -136 -12 -10 9 -16 10 -16 2
0 -8 -52 -11 -172 -11 -95 0 -213 -5 -263 -11 -49 -6 -134 -12 -189 -14 -54
-2 -101 -7 -104 -10 -8 -7 236 -6 493 3 l220 7 -170 6 c-131 4 -102 5 130 5
l300 -1 85 33 c46 18 86 35 89 38 11 11 -30 1 -88 -22z"/>
<path d="M1562 6745 c7 -7 329 -7 336 0 3 3 -73 5 -168 5 -95 0 -171 -2 -168
-5z"/>
<path d="M1990 6739 c-207 -12 -212 -18 -12 -16 95 1 163 -1 150 -5 -19 -5
-17 -6 12 -7 52 -1 140 11 140 19 0 4 -12 5 -26 2 -19 -3 -25 -1 -20 7 8 13
-19 13 -244 0z"/>
<path d="M1773 6702 c-6 -4 48 -6 120 -4 205 4 228 8 52 10 -88 1 -165 -2
-172 -6z"/>
<path d="M2813 6603 c26 -2 67 -2 90 0 23 2 2 3 -48 3 -49 0 -68 -1 -42 -3z"/>
<path d="M1978 6593 c39 -2 105 -2 145 0 39 1 7 3 -73 3 -80 0 -112 -2 -72 -3z"/>
<path d="M2210 6590 c0 -6 -90 -10 -247 -11 -137 -1 -282 -5 -323 -9 -41 -4
132 -7 385 -8 253 0 467 -3 475 -6 22 -9 420 10 430 20 5 5 -151 8 -353 7
-215 -1 -354 2 -342 7 19 8 19 9 -2 9 -13 1 -23 -3 -23 -9z"/>
<path d="M1875 6540 l-240 -6 297 -2 c190 -1 299 2 303 8 4 6 -17 9 -57 8 -35
-1 -171 -5 -303 -8z"/>
<path d="M2703 6543 c9 -2 25 -2 35 0 9 3 1 5 -18 5 -19 0 -27 -2 -17 -5z"/>
<path d="M2435 6480 l-140 -6 130 -1 c72 -1 150 2 175 6 53 10 49 10 -165 1z"/>
<path d="M2108 6463 c34 -2 90 -2 125 0 34 2 6 3 -63 3 -69 0 -97 -1 -62 -3z"/>
<path d="M1963 6453 c15 -2 39 -2 55 0 15 2 2 4 -28 4 -30 0 -43 -2 -27 -4z"/>
<path d="M727 8684 c-34 -30 -67 -59 -74 -64 -6 -5 -14 -28 -18 -52 -11 -67
-22 -81 -56 -74 -16 3 -29 1 -29 -4 0 -6 5 -10 10 -10 6 0 10 -12 10 -26 0
-14 5 -34 10 -45 8 -13 7 -19 0 -19 -15 0 -9 -162 6 -167 8 -3 14 27 18 87 5
59 12 90 20 90 6 0 24 28 38 63 21 47 26 72 22 102 -6 39 -4 43 60 108 80 81
70 88 -17 11z"/>
<path d="M3780 8664 c0 -3 11 -20 25 -38 14 -17 36 -44 48 -60 20 -25 26 -27
45 -17 30 16 28 34 -4 28 -20 -3 -27 1 -35 20 -13 34 -79 90 -79 67z"/>
<path d="M2290 8634 c0 -14 4 -23 9 -20 5 3 7 15 4 26 -7 28 -13 25 -13 -6z"/>
<path d="M2303 8540 c0 -30 2 -43 4 -27 2 15 2 39 0 55 -2 15 -4 2 -4 -28z"/>
<path d="M3103 8517 c3 -10 2 -17 -3 -17 -6 0 -10 -11 -10 -25 0 -14 -4 -25
-10 -25 -5 0 -9 -15 -8 -32 0 -18 -1 -39 -3 -47 -2 -8 6 -17 21 -22 24 -7 24
-7 3 -8 -33 -1 -28 -15 9 -29 25 -9 30 -14 20 -24 -7 -7 -12 -22 -12 -34 0
-13 -4 -25 -9 -28 -14 -9 -21 22 -11 50 13 34 13 34 -9 34 -15 0 -19 -6 -16
-27 2 -16 1 -32 -2 -36 -8 -13 -51 56 -48 75 2 11 -1 15 -10 12 -24 -10 -25
14 -1 37 l24 23 -23 18 c-13 10 -28 18 -33 18 -13 0 -6 -93 9 -122 16 -30 49
-73 49 -63 0 4 7 1 17 -6 9 -8 18 -13 20 -12 3 3 303 -302 315 -320 5 -7 8 0
8 16 0 15 -5 27 -10 27 -6 0 -46 36 -89 80 -44 44 -73 80 -66 80 7 0 15 15 17
35 4 33 2 35 -24 35 -15 0 -28 -4 -28 -10 0 -5 9 -10 20 -10 13 0 18 -5 14
-15 -4 -8 -12 -15 -19 -15 -16 0 -78 50 -71 58 3 2 1 13 -5 23 -8 16 -6 19 10
19 10 0 21 6 24 14 3 8 -1 13 -10 12 -24 -2 -27 21 -3 27 25 6 26 24 3 30 -17
4 -17 5 0 6 21 1 22 20 1 28 -8 3 -13 12 -10 20 3 8 2 22 -3 31 -5 9 -5 26 -1
37 4 12 2 25 -7 33 -7 7 -13 22 -13 32 0 10 -5 22 -12 26 -8 5 -9 2 -5 -9z"/>
<path d="M3882 8475 c0 -25 5 -42 10 -39 6 4 8 -34 7 -95 -3 -106 7 -139 34
-112 10 11 10 14 0 18 -18 7 -16 50 2 57 20 7 20 78 -1 142 -29 86 -54 100
-52 29z"/>
<path d="M2968 8462 c-4 -15 0 -17 23 -14 35 5 39 32 5 32 -14 0 -26 -7 -28
-18z"/>
<path d="M2760 8429 c0 -4 7 -12 15 -19 11 -9 15 -9 15 -1 0 7 4 10 10 6 5 -3
7 -12 3 -20 -4 -11 -1 -13 13 -8 13 5 16 3 11 -10 -6 -16 9 -39 75 -111 31
-34 52 -28 22 7 -28 32 -45 67 -39 77 8 13 -80 86 -104 86 -12 0 -21 -3 -21
-7z m111 -69 c4 0 6 -7 2 -16 -3 -9 0 -20 8 -25 8 -5 9 -9 3 -9 -11 0 -34 23
-49 49 -6 11 -4 13 9 8 10 -4 22 -7 27 -7z"/>
<path d="M1200 8416 c0 -7 9 -25 20 -39 11 -14 20 -35 20 -46 0 -13 9 -25 23
-31 22 -9 22 -9 -3 -10 -21 0 -22 -2 -8 -10 17 -11 48 -4 48 10 0 5 -9 12 -21
15 -19 6 -20 8 -3 26 16 18 16 19 -16 32 -32 14 -32 14 -9 22 23 8 22 8 -8 12
-18 2 -33 8 -33 13 0 5 15 11 33 13 31 4 31 4 -5 5 -26 2 -38 -2 -38 -12z"/>
<path d="M3160 8410 c-11 -7 -5 -8 20 -4 43 8 51 14 19 14 -13 0 -31 -5 -39
-10z"/>
<path d="M3495 8320 c3 -5 14 -10 23 -11 9 0 12 -3 6 -5 -18 -7 -4 -46 13 -40
8 3 22 6 31 6 15 1 14 3 -2 15 -15 11 -16 15 -5 16 16 1 -39 28 -59 29 -7 0
-10 -4 -7 -10z"/>
<path d="M3533 8226 c3 -8 1 -17 -6 -20 -7 -2 20 -4 58 -4 l70 0 -40 19 c-49
23 -90 25 -82 5z"/>
<path d="M3198 8198 c8 -8 17 -8 34 0 22 10 21 11 -11 11 -27 1 -32 -2 -23
-11z"/>
<path d="M760 8152 c0 -17 -3 -37 -6 -46 -3 -9 -1 -16 5 -16 6 0 11 16 11 35
l0 35 80 -4 c82 -5 104 -11 95 -27 -4 -5 -1 -9 4 -9 6 0 11 5 11 10 0 6 10 14
22 19 16 6 2 10 -53 14 -41 4 -95 10 -121 13 l-48 6 0 -30z"/>
<path d="M3737 8078 c8 -46 13 -48 13 -5 0 21 -4 37 -10 37 -5 0 -7 -14 -3
-32z"/>
<path d="M1259 8074 c-13 -14 -36 -33 -51 -42 -16 -9 -28 -21 -28 -27 0 -5
-21 -30 -45 -54 -25 -25 -45 -50 -45 -55 0 -6 46 35 102 91 56 56 100 105 97
108 -3 3 -16 -7 -30 -21z"/>
<path d="M870 8077 c0 -8 14 -11 45 -9 54 5 50 22 -6 22 -25 0 -39 -5 -39 -13z"/>
<path d="M3573 8084 c-25 -11 -12 -19 33 -21 32 -2 44 1 41 10 -4 13 -53 20
-74 11z"/>
<path d="M1200 7975 c-46 -46 -81 -88 -77 -92 7 -6 177 159 177 172 0 16 -24
-3 -100 -80z"/>
<path d="M3575 8030 c-19 -7 -18 -8 5 -14 60 -14 180 -22 177 -12 -4 13 -101
29 -134 23 -12 -2 -20 0 -17 4 6 11 -4 10 -31 -1z"/>
<path d="M833 8017 c-46 -5 -83 -14 -83 -18 0 -15 108 -10 145 5 31 13 48 29
28 25 -5 -1 -45 -6 -90 -12z"/>
<path d="M1688 7983 c23 -2 59 -2 80 0 20 2 1 4 -43 4 -44 0 -61 -2 -37 -4z"/>
<path d="M3580 7980 c0 -5 19 -10 43 -10 31 0 38 3 27 10 -20 13 -70 13 -70 0z"/>
<path d="M3749 7913 c0 -32 -2 -69 -4 -83 -1 -14 1 -32 6 -40 5 -9 9 24 9 83
0 53 -2 97 -5 97 -3 0 -5 -26 -6 -57z"/>
<path d="M905 7935 c-5 -2 -23 -6 -38 -9 -15 -4 -25 -11 -22 -16 10 -17 51
-11 70 10 17 19 14 23 -10 15z"/>
<path d="M752 7889 c-2 -35 2 -48 14 -53 13 -5 14 -3 6 6 -6 7 -12 31 -15 53
l-4 40 -1 -46z"/>
<path d="M3575 7920 c-4 -6 12 -10 42 -10 35 0 44 3 33 10 -20 13 -67 13 -75
0z"/>
<path d="M1628 7883 c34 -2 88 -2 120 0 31 2 3 3 -63 3 -66 0 -92 -1 -57 -3z"/>
<path d="M865 7871 c-29 -7 -30 -7 -6 -15 16 -6 28 -3 39 8 17 17 14 18 -33 7z"/>
<path d="M3565 7870 c29 -12 114 -12 95 0 -8 5 -37 9 -65 9 -37 0 -45 -3 -30
-9z"/>
<path d="M1200 7831 c-6 -12 -7 -21 -1 -21 10 0 24 30 17 37 -2 3 -9 -5 -16
-16z"/>
<path d="M830 7810 c0 -13 30 -13 50 0 11 7 7 10 -17 10 -18 0 -33 -4 -33 -10z"/>
<path d="M2122 7780 c-10 -198 -12 -333 -5 -380 l8 -55 52 -2 51 -2 4 48 c1
26 1 128 -2 227 l-6 179 -2 -222 c-2 -189 -4 -223 -17 -223 -12 0 -15 35 -18
233 l-2 232 -3 -231 -2 -231 -25 5 -25 4 -3 232 c-1 127 -3 211 -5 186z"/>
<path d="M2490 7692 c0 -111 2 -131 15 -126 9 4 13 15 10 32 -2 15 -7 69 -9
121 -3 51 -8 96 -11 99 -3 3 -5 -54 -5 -126z"/>
<path d="M2356 7801 c-13 -5 -1 -7 32 -7 29 1 52 4 52 9 0 9 -59 8 -84 -2z"/>
<path d="M760 7749 c0 -78 106 -419 131 -419 8 0 -26 105 -56 175 -21 47 -43
160 -42 210 1 25 -2 45 -8 46 -5 0 -1 4 10 9 18 8 17 9 -7 9 -25 1 -28 -3 -28
-30z"/>
<path d="M3650 7210 l-45 -6 28 -12 c16 -7 34 -12 42 -12 7 0 15 -5 17 -10 2
-6 16 3 33 20 l29 30 -30 -2 c-16 0 -49 -4 -74 -8z"/>
</g>
</svg>
